<svg width="130" height="32" viewBox="0 0 130 32" fill="none" xmlns="http://www.w3.org/2000/svg">
<path d="M47.2409 17.935C47.1388 17.8329 46.9957 17.8329 46.8936 17.935C46.8731 17.9555 46.8731 17.9555 46.8731 17.9759C45.6472 19.6718 43.2769 20.0396 41.581 18.7932C41.438 18.6911 41.295 18.5685 41.1724 18.4459C39.7421 16.9338 39.7421 14.5636 41.1724 13.0516C42.6231 11.5804 44.9933 11.5804 46.4645 13.0311C46.6075 13.1742 46.7505 13.3376 46.8731 13.5011C46.9549 13.6033 47.0979 13.6441 47.2205 13.5624C47.2409 13.5624 47.2409 13.542 47.2614 13.542L48.7325 12.0708C48.8143 11.9891 48.8347 11.846 48.753 11.7439C48.6304 11.5804 48.4873 11.4374 48.3443 11.2943C45.8924 8.82197 41.8875 8.82197 39.4356 11.2739C38.2505 12.459 37.5762 14.0732 37.5762 15.7487C37.5966 19.2427 40.4572 22.0625 43.9717 22.0216C45.6063 22.0012 47.1796 21.3473 48.3647 20.2031C48.5282 20.0396 48.6712 19.8762 48.8143 19.7127C48.896 19.6105 48.896 19.4675 48.7938 19.3858L47.2409 17.935Z" fill="#201661"/>
<path d="M98.7316 18.3831C98.6294 18.281 98.4864 18.281 98.3843 18.3831L98.3638 18.4036C97.6691 19.2413 96.7088 19.6704 95.4419 19.6704C93.4599 19.6704 92.0092 18.6692 91.621 16.8507H100.918C101.041 16.8507 101.143 16.7689 101.163 16.6464C101.204 16.3603 101.224 16.0742 101.224 15.7882C101.265 14.1331 100.652 12.5393 99.5285 11.3134C98.4251 10.1078 96.8722 9.43355 95.2376 9.47441C93.3986 9.47441 91.8662 10.067 90.7015 11.2929C89.5368 12.478 88.9238 13.9696 88.9238 15.7677C88.9238 17.5863 89.5164 19.0779 90.7219 20.2834C91.907 21.4481 93.5008 22.0611 95.4215 22.0611C97.4239 22.0611 98.9768 21.4276 100.121 20.1404C100.203 20.0382 100.203 19.8952 100.101 19.8134L98.7316 18.3831ZM95.2172 11.8038C96.9131 11.8038 98.2821 12.805 98.6294 14.7461H91.621C91.9683 12.9276 93.3169 11.8038 95.2172 11.8038Z" fill="#201661"/>
<path d="M51.3277 20.204C48.8758 17.7316 48.8758 13.7472 51.3277 11.2748C53.7797 8.80244 57.7845 8.80244 60.2365 11.2544C61.4216 12.4395 62.0959 14.0537 62.0959 15.7292C62.0754 19.2232 59.2148 22.0429 55.7004 22.0021C54.0657 22.0225 52.4924 21.3687 51.3277 20.204ZM55.7821 19.5093C56.7833 19.5297 57.7437 19.1415 58.4384 18.4263C59.8687 16.9143 59.8687 14.5441 58.4384 13.032C56.9672 11.6017 54.6174 11.6017 53.1258 13.032C51.6955 14.5441 51.6955 16.9143 53.1258 18.4263C53.841 19.1619 54.8013 19.5501 55.7821 19.5093Z" fill="#201661"/>
<path d="M64.0567 9.78125H66.1409C66.2839 9.78125 66.3861 9.88341 66.3861 10.0264V21.4689C66.3861 21.6119 66.2839 21.7141 66.1409 21.7141H64.0567C63.9137 21.7141 63.8115 21.6119 63.8115 21.4689V10.0264C63.8115 9.88341 63.9137 9.78125 64.0567 9.78125Z" fill="#201661"/>
<path d="M79.8921 14.3767V21.4669C79.8921 21.61 79.7899 21.7121 79.6469 21.7121H77.5628C77.4197 21.7121 77.3176 21.61 77.3176 21.4669V14.6423C77.3176 12.8442 76.2959 11.8635 74.6408 11.8635C72.8223 11.8635 71.6168 12.9873 71.6168 15.2962V21.4669C71.6168 21.61 71.5146 21.7121 71.3716 21.7121H69.2874C69.1444 21.7121 69.0422 21.61 69.0422 21.4669V10.0245C69.0422 9.88148 69.1444 9.77931 69.2874 9.77931H71.3716C71.5146 9.77931 71.6168 9.88148 71.6168 10.0245V11.3118C72.4137 10.0858 73.6192 9.47282 75.3151 9.47282C78.0531 9.45239 79.8921 11.3322 79.8921 14.3767Z" fill="#201661"/>
<path d="M84.7357 11.7849C85.3487 10.375 86.4929 9.63942 88.148 9.57812C88.291 9.57812 88.3932 9.68029 88.4136 9.80289C88.4136 9.80289 88.4136 9.80289 88.4136 9.82332V12.1118C88.4136 12.2548 88.3114 12.357 88.1684 12.357C87.3307 12.3366 86.5133 12.5818 85.8391 13.0926C85.1035 13.6238 84.7357 14.5024 84.7357 15.7284V21.4701C84.7357 21.6131 84.6335 21.7153 84.4905 21.7153H82.4063C82.2633 21.7153 82.1611 21.6131 82.1611 21.4701V10.0276C82.1611 9.88462 82.2633 9.78245 82.4063 9.78245H84.4905C84.6335 9.78245 84.7357 9.88462 84.7357 10.0276V11.7849Z" fill="#201661"/>
<path d="M112.851 9.78142H114.935C115.078 9.78142 115.18 9.88358 115.18 10.0266V21.469C115.18 21.6121 115.078 21.7142 114.935 21.7142H112.851C112.708 21.7142 112.606 21.6121 112.606 21.469V19.9979C111.625 21.3669 110.235 22.0207 108.417 22.0207C106.823 22.0411 105.291 21.3873 104.208 20.2022C103.043 18.9966 102.43 17.4029 102.471 15.7274C102.43 14.0723 103.063 12.4581 104.208 11.2526C105.291 10.0675 106.823 9.41363 108.417 9.43406C110.235 9.43406 111.625 10.1083 112.606 11.4365V10.0266C112.606 9.88358 112.728 9.78142 112.851 9.78142ZM108.846 19.5688C109.847 19.5892 110.828 19.201 111.543 18.4858C112.258 17.7502 112.646 16.7695 112.626 15.7478C112.667 14.7262 112.279 13.7454 111.543 13.0302C110.052 11.5591 107.64 11.5591 106.149 13.0302C105.434 13.7454 105.045 14.7262 105.066 15.7478C105.045 16.7695 105.434 17.7707 106.149 18.4858C106.864 19.201 107.824 19.5892 108.846 19.5688Z" fill="#201661"/>
<path d="M127.276 5H129.36C129.503 5 129.605 5.10216 129.605 5.24519V21.4689C129.605 21.6119 129.503 21.7141 129.36 21.7141H127.276C127.133 21.7141 127.031 21.6119 127.031 21.4689V19.9977C126.05 21.3667 124.661 22.0206 122.842 22.0206C121.248 22.041 119.716 21.3872 118.633 20.2021C117.468 18.9965 116.855 17.4028 116.896 15.7273C116.855 14.0722 117.489 12.458 118.633 11.2525C119.716 10.0674 121.248 9.4135 122.842 9.43394C124.661 9.43394 126.05 10.1082 127.031 11.4364V5.24519C127.031 5.10216 127.133 5 127.276 5ZM123.251 19.5686C124.252 19.5891 125.233 19.2009 125.948 18.4857C126.663 17.7501 127.051 16.7693 127.031 15.7477C127.072 14.7261 126.684 13.7453 125.948 13.0301C124.456 11.559 122.045 11.559 120.554 13.0301C119.839 13.7453 119.45 14.7261 119.471 15.7477C119.45 16.7693 119.839 17.7706 120.554 18.4857C121.269 19.2009 122.25 19.5891 123.251 19.5686Z" fill="#201661"/>
<path d="M65.0998 8.02527C65.8446 8.02527 66.4484 7.42149 66.4484 6.6767C66.4484 5.9319 65.8446 5.32812 65.0998 5.32812C64.355 5.32812 63.7512 5.9319 63.7512 6.6767C63.7512 7.42149 64.355 8.02527 65.0998 8.02527Z" fill="#201661"/>
<path d="M15.5499 28.0144C22.411 28.0144 27.9731 22.4523 27.9731 15.5912C27.9731 8.73002 22.411 3.16797 15.5499 3.16797C8.68876 3.16797 3.12671 8.73002 3.12671 15.5912C3.12671 22.4523 8.68876 28.0144 15.5499 28.0144Z" fill="white"/>
<path d="M29.219 8.05056C26.5627 3.26926 21.4341 0 15.5903 0C6.98805 0 0 6.98805 0 15.5903C0 24.1925 6.98805 31.1806 15.5903 31.1806C18.124 31.1806 20.5555 30.5676 22.6805 29.4847C25.4389 28.0748 27.7479 25.8476 29.2395 23.13C30.4859 20.8824 31.0989 18.3283 31.0989 15.5903C31.0989 12.8523 30.445 10.2777 29.219 8.05056ZM15.5903 26.6445C9.48086 26.6445 4.5361 21.6997 4.5361 15.5903C4.5361 9.48086 9.48086 4.5361 15.5903 4.5361C21.6997 4.5361 26.6445 9.48086 26.6445 15.5903C26.6445 21.6997 21.6793 26.6445 15.5903 26.6445Z" fill="url(#paint0_linear)"/>
<path d="M15.5899 22.0891C19.1785 22.0891 22.0876 19.18 22.0876 15.5914C22.0876 12.0029 19.1785 9.09375 15.5899 9.09375C12.0014 9.09375 9.09229 12.0029 9.09229 15.5914C9.09229 19.18 12.0014 22.0891 15.5899 22.0891Z" fill="url(#paint1_linear)"/>
<path d="M10.1752 15.5914C10.1752 12.1791 12.8111 9.40024 16.1416 9.11418C15.9577 9.09375 15.7738 9.09375 15.5899 9.09375C12.0142 9.09375 9.09229 11.9952 9.09229 15.5914C9.09229 19.1876 11.9938 22.0891 15.5899 22.0891C15.7738 22.0891 15.9577 22.0891 16.1416 22.0686C12.7702 21.7826 10.1752 19.0037 10.1752 15.5914Z" fill="#154ED5"/>
<path d="M22.0877 15.5904C22.0877 13.731 21.2909 12.0555 20.0445 10.8704L14.7728 14.9161C14.5684 15.0795 14.4254 15.3247 14.4254 15.5904C14.4254 15.856 14.5684 16.1216 14.7728 16.2646L20.0445 20.3104C21.2909 19.1252 22.0877 17.4498 22.0877 15.5904Z" fill="#154ED5"/>
<path d="M29.2192 8.05067C27.7276 5.3331 25.4391 3.12635 22.6602 1.69604C23.498 2.12514 24.1518 2.88115 24.4787 3.82107C24.9078 5.16964 24.54 6.55907 23.641 7.51942L16.5916 14.5688C16.326 14.8344 16.183 15.2022 16.183 15.57C16.183 15.9378 16.326 16.3056 16.5916 16.5712L23.641 23.6205C24.54 24.5809 24.9283 25.9907 24.4787 27.3189C24.1518 28.2792 23.498 29.0148 22.6602 29.4439C25.4186 28.034 27.7276 25.8069 29.2192 23.0893C30.4656 20.8417 31.0786 18.2875 31.0786 15.5495C31.0786 12.8115 30.4451 10.2779 29.2192 8.05067Z" fill="#55ADED"/>
<path d="M26.4603 21.556C26.3785 21.4743 26.2764 21.3721 26.1742 21.2904L19.6765 16.2843C19.4722 16.1209 19.3496 15.8757 19.3496 15.61C19.3496 15.3444 19.4926 15.0788 19.6765 14.9357L26.1742 9.92969C26.2968 9.84796 26.3785 9.74579 26.4603 9.66406V21.556Z" fill="#3375CA"/>
<path d="M29.2189 8.05202C28.4629 6.70345 27.5434 5.45704 26.4196 4.39453C27.0734 5.04838 27.5025 5.94743 27.5025 6.96907C27.523 8.01115 27.1143 8.95106 26.44 9.62535L21.4748 14.5905C21.2092 14.8562 21.0662 15.224 21.0662 15.5918C21.0662 15.9595 21.2092 16.3273 21.4748 16.593L26.44 21.5582C27.1143 22.2324 27.523 23.1928 27.5025 24.2144C27.4821 25.2156 27.0734 26.1147 26.4196 26.789C27.5025 25.7265 28.4629 24.5005 29.2189 23.1315C30.4653 20.8839 31.0783 18.3298 31.0783 15.5918C31.0783 12.8537 30.4449 10.2792 29.2189 8.05202Z" fill="#62CFE8"/>
<path d="M28.5443 18.7152C28.3196 18.5109 28.0948 18.327 27.8087 18.1635L24.6825 16.3246C24.4373 16.1611 24.2534 15.8955 24.2534 15.5685C24.2534 15.2416 24.4373 14.9556 24.6825 14.8125L27.8087 12.9736C28.0539 12.8101 28.2991 12.6262 28.5443 12.4219V18.7152Z" fill="#3E8DC7"/>
<path d="M31.1804 15.5908C31.1804 12.8528 30.4857 10.2782 29.2189 8.05103C29.6684 8.86834 29.791 9.84912 29.5049 10.8095C29.321 11.4225 29.035 11.9537 28.6263 12.3624C28.6059 12.3828 28.565 12.4237 28.5446 12.4441L26.3787 14.61C26.1131 14.8756 25.97 15.2434 25.97 15.6112C25.97 15.979 26.1131 16.3468 26.3787 16.6124L28.5446 18.7783C28.565 18.7987 28.6059 18.8396 28.6263 18.86C29.035 19.2891 29.3619 19.8204 29.5049 20.4129C29.7705 21.3733 29.648 22.3745 29.2189 23.1714C30.4448 20.9033 31.1804 18.3288 31.1804 15.5908Z" fill="#91F6D4"/>
<defs>
<linearGradient id="paint0_linear" x1="0" y1="15.5903" x2="31.0989" y2="15.5903" gradientUnits="userSpaceOnUse">
<stop offset="0.5" stop-color="#2779F5"/>
<stop offset="0.75" stop-color="#2062C5"/>
</linearGradient>
<linearGradient id="paint1_linear" x1="9.09229" y1="15.5914" x2="22.0728" y2="15.5914" gradientUnits="userSpaceOnUse">
<stop offset="0.5" stop-color="#2779F5"/>
<stop offset="0.75" stop-color="#2062C5"/>
</linearGradient>
</defs>
</svg>
