<svg width="124" height="124" viewBox="0 0 124 124" fill="none" xmlns="http://www.w3.org/2000/svg">
<circle cx="62" cy="62" r="62" fill="#EFF3FC"/>
<path d="M77 43.4878C77 42.2647 76.6629 41.1206 76.0769 40.1442C74.9462 38.2601 72.8889 37 70.5385 37H35.4615C31.8929 37 29 39.9047 29 43.4878V68.5122C29 72.0953 31.8929 75 35.4615 75H45.6154" stroke="#2056D7" stroke-width="3" stroke-linecap="round" stroke-linejoin="round"/>
<path d="M95 73.7093V76.8732C95 80.4974 92.1071 83.4353 88.5385 83.4353L86.5576 83.4353C85.5087 83.4353 84.5498 84.0372 84.0807 84.99L82.8721 87.4449C82.0268 89.1618 79.7736 89.5332 78.4371 88.1758L74.5803 84.259C74.061 83.7316 73.3566 83.4353 72.6222 83.4353L53.4615 83.4353C49.8929 83.4353 47 80.4974 47 76.8732V51.5621C47 47.938 49.8929 45 53.4615 45H88.5385C92.1071 45 95 47.938 95 51.5621V62.2177V65.4441" stroke="#2056D7" stroke-width="3" stroke-linecap="round" stroke-linejoin="round"/>
<path opacity="0.6" d="M81.5613 58.9435C84.2017 65.3194 74.1925 74.5 71 74.5C67.8075 74.5 57.7983 65.3194 60.4387 58.9435C63.079 52.5676 69.5 56.9989 71 56.9989C72.5 56.9989 78.921 52.5676 81.5613 58.9435Z" fill="#9CE1FF"/>
<path d="M81.5613 58.4433C84.2017 64.8192 74.1925 73.9998 71 73.9998C67.8075 73.9998 57.7983 64.8192 60.4387 58.4433C63.079 52.0674 69 57.001 71 56.9999C73 56.9988 78.921 52.0674 81.5613 58.4433Z" stroke="#2056D7" stroke-width="3" stroke-linecap="round" stroke-linejoin="round"/>
<path d="M35 61H41" stroke="#2056D7" stroke-width="3" stroke-linecap="round" stroke-linejoin="round"/>
<path d="M35 53H47" stroke="#2056D7" stroke-width="3" stroke-linecap="round" stroke-linejoin="round"/>
</svg>
