<svg width="124" height="124" viewBox="0 0 124 124" fill="none" xmlns="http://www.w3.org/2000/svg">
<circle cx="62" cy="62" r="62" fill="#EFF3FC"/>
<path d="M76.668 48.4041C79.9225 51.9152 81.8096 56.4773 81.9864 61.2615C82.1631 66.0457 80.6179 70.7346 77.6314 74.4764C74.6448 78.2181 70.4152 80.7644 65.7108 81.6527C61.0065 82.541 56.1396 81.7123 51.9943 79.3172C47.849 76.9221 44.7004 73.1195 43.1205 68.6002C41.5405 64.081 41.6341 59.1449 43.3843 54.6888C45.1344 50.2326 48.4249 46.5521 52.658 44.3159C56.8911 42.0797 61.786 41.4361 66.4533 42.5021" stroke="#2056D7" stroke-width="3" stroke-linecap="round" stroke-linejoin="round"/>
<path d="M94.237 48.3699C97.2666 55.5354 97.8225 63.506 95.817 71.0227C93.8115 78.5394 89.3588 85.1736 83.1624 89.8775C76.9659 94.5814 69.3788 97.0867 61.5997 96.9977C53.8206 96.9087 46.2929 94.2306 40.2056 89.3862C34.1183 84.5419 29.8185 77.8075 27.9855 70.2469C26.1524 62.6863 26.8905 54.7305 30.0832 47.6362C33.2759 40.5419 38.7412 34.7135 45.6158 31.0717C52.4904 27.4299 60.3824 26.1823 68.0451 27.526" stroke="#2056D7" stroke-width="3" stroke-linecap="round" stroke-linejoin="round"/>
<circle opacity="0.6" cx="62" cy="62" r="8" fill="#9CE1FF"/>
<circle cx="62" cy="62" r="8" stroke="#2056D7" stroke-width="3" stroke-linecap="round" stroke-linejoin="round"/>
<path d="M62 62L82 41" stroke="#2056D7" stroke-width="3" stroke-linecap="round" stroke-linejoin="round"/>
<path d="M88.4968 42.1985L82.4657 41.0907L81.358 35.0597L88.4968 27.9208L89.6046 33.9519L95.6357 35.0597L88.4968 42.1985Z" stroke="#2056D7" stroke-width="3" stroke-linecap="round" stroke-linejoin="round"/>
</svg>
