<svg width="124" height="124" viewBox="0 0 124 124" fill="none" xmlns="http://www.w3.org/2000/svg">
<circle cx="62" cy="62" r="62" fill="#EFF3FC"/>
<path opacity="0.6" d="M26 50.5L42.2769 31.4328C43.053 30.5236 44.1884 30 45.3839 30C48.2959 30 50.2728 32.9598 49.1574 35.6497L43 50.5H26Z" fill="#9CE1FF"/>
<mask id="path-3-inside-1" fill="white">
<path d="M79.5174 30C81.4229 30 83.2461 30.7768 84.566 32.1512L97.9298 46.0656C100.284 48.5164 100.537 52.3037 98.5314 55.0466L67.6503 97.2737C64.8539 101.098 59.1461 101.098 56.3497 97.2737L25.4686 55.0466C23.4627 52.3037 23.7164 48.5164 26.0702 46.0656L39.434 32.1512C40.7539 30.7768 42.5771 30 44.4826 30L51.75 30L72.25 30L79.5174 30Z"/>
</mask>
<path d="M73.6173 29.3831C73.2765 28.628 72.3882 28.292 71.6331 28.6327C70.8779 28.9735 70.542 29.8618 70.8827 30.6169L73.6173 29.3831ZM53.1173 30.6169C53.458 29.8618 53.1221 28.9735 52.3669 28.6327C51.6118 28.292 50.7235 28.628 50.3827 29.3831L53.1173 30.6169ZM62 99L60.6083 99.5596C60.8367 100.128 61.3876 100.5 62 100.5C62.6124 100.5 63.1633 100.128 63.3917 99.5596L62 99ZM48.4208 69.2471C48.7298 70.0157 49.6034 70.3883 50.3721 70.0792C51.1407 69.7702 51.5133 68.8966 51.2042 68.1279L48.4208 69.2471ZM56.0792 80.2529C55.7702 79.4843 54.8966 79.1117 54.1279 79.4208C53.3593 79.7298 52.9867 80.6034 53.2958 81.3721L56.0792 80.2529ZM80.2723 47.7792L78.9051 48.3961L80.2723 47.7792ZM43.7277 47.7792L42.3604 47.1623L43.7277 47.7792ZM50.3827 29.3831L42.3604 47.1623L45.0949 48.3961L53.1173 30.6169L50.3827 29.3831ZM63.3917 99.5596L81.7782 53.8291L78.9948 52.7099L60.6083 98.4404L63.3917 99.5596ZM81.6396 47.1623L73.6173 29.3831L70.8827 30.6169L78.9051 48.3961L81.6396 47.1623ZM42.2218 53.8291L45.9833 63.1846L48.7667 62.0654L45.0052 52.7099L42.2218 53.8291ZM55.7333 87.4346L60.6083 99.5596L63.3917 98.4404L58.5167 86.3154L55.7333 87.4346ZM45.9833 63.1846L48.4208 69.2471L51.2042 68.1279L48.7667 62.0654L45.9833 63.1846ZM53.2958 81.3721L55.7333 87.4346L58.5167 86.3154L56.0792 80.2529L53.2958 81.3721ZM81.7782 53.8291C82.642 51.6807 82.5919 49.2729 81.6396 47.1623L78.9051 48.3961C79.5213 49.7618 79.5537 51.3198 78.9948 52.7099L81.7782 53.8291ZM42.3604 47.1623C41.4081 49.2729 41.358 51.6807 42.2218 53.8291L45.0052 52.7099C44.4463 51.3198 44.4787 49.7618 45.0949 48.3961L42.3604 47.1623ZM72.25 30V27V30ZM51.75 30V27V30ZM44.4826 30V33V30ZM26.0702 46.0656L23.9065 43.9876L26.0702 46.0656ZM67.6503 97.2737L65.2287 95.5028L67.6503 97.2737ZM98.5314 55.0466L100.953 56.8175L98.5314 55.0466ZM97.9298 46.0656L100.093 43.9876L97.9298 46.0656ZM96.1099 53.2757L65.2287 95.5028L70.0718 99.0446L100.953 56.8175L96.1099 53.2757ZM58.7713 95.5028L27.8901 53.2757L23.047 56.8175L53.9282 99.0446L58.7713 95.5028ZM82.4023 34.2292L95.7661 48.1437L100.093 43.9876L86.7297 30.0731L82.4023 34.2292ZM28.2339 48.1437L41.5977 34.2292L37.2703 30.0731L23.9065 43.9876L28.2339 48.1437ZM72.25 33L79.5174 33V27L72.25 27V33ZM44.4826 33L51.75 33V27L44.4826 27V33ZM51.75 33L72.25 33V27L51.75 27V33ZM41.5977 34.2292C42.3519 33.4439 43.3937 33 44.4826 33V27C41.7604 27 39.1559 28.1098 37.2703 30.0731L41.5977 34.2292ZM86.7297 30.0731C84.8441 28.1098 82.2396 27 79.5174 27V33C80.6063 33 81.6481 33.4439 82.4023 34.2292L86.7297 30.0731ZM27.8901 53.2757C26.7439 51.7083 26.8889 49.5442 28.2339 48.1437L23.9065 43.9876C20.5439 47.4887 20.1815 52.8991 23.047 56.8175L27.8901 53.2757ZM65.2287 95.5028C63.6308 97.6879 60.3692 97.6879 58.7713 95.5028L53.9282 99.0446C57.9231 104.507 66.0769 104.507 70.0718 99.0446L65.2287 95.5028ZM100.953 56.8175C103.819 52.8991 103.456 47.4887 100.093 43.9876L95.7661 48.1437C97.1111 49.5442 97.2561 51.7083 96.1099 53.2757L100.953 56.8175Z" fill="#2056D7" mask="url(#path-3-inside-1)"/>
<path d="M26.5 50.5H41.5H82.5H87.5" stroke="#2056D7" stroke-width="3" stroke-linecap="round" stroke-linejoin="round"/>
</svg>
