<svg width="57" height="57" viewBox="0 0 57 57" fill="none" xmlns="http://www.w3.org/2000/svg">
<path opacity="0.8" fill-rule="evenodd" clip-rule="evenodd" d="M28.5 0C12.7599 0 0 12.7599 0 28.5C0 44.2401 12.7599 57 28.5 57C44.2401 57 57 44.2401 57 28.5C57 12.7599 44.2401 0 28.5 0ZM35.1676 15.0679C33.4273 14.9887 32.906 14.9716 28.5 14.9716L28.5026 14.969C24.0966 14.969 23.5753 14.986 21.835 15.0653C20.2264 15.1386 19.3527 15.4072 18.7711 15.6331C18.0535 15.8973 17.4044 16.3193 16.8717 16.8678C16.3232 17.4005 15.9013 18.0496 15.637 18.7672C15.4111 19.3488 15.1425 20.2225 15.0692 21.8311C14.9899 23.5714 14.9729 24.0927 14.9729 28.4987C14.9729 32.9047 14.9899 33.426 15.0692 35.1663C15.1425 36.7749 15.4111 37.6486 15.637 38.2303C15.9013 38.9478 16.3232 39.5969 16.8717 40.1297C17.4044 40.6782 18.0535 41.1001 18.7711 41.3643C19.3527 41.5902 20.2264 41.8588 21.835 41.9321C23.5746 42.0114 24.0966 42.0284 28.5026 42.0284C32.9086 42.0284 33.4306 42.0114 35.1702 41.9321C36.7788 41.8588 37.6525 41.5902 38.2342 41.3643C38.9456 41.0895 39.5917 40.6689 40.131 40.1297C40.6702 39.5904 41.0908 38.9443 41.3656 38.2329C41.5915 37.6513 41.8601 36.7775 41.9334 35.1689C42.0127 33.4287 42.0297 32.9073 42.0297 28.5013C42.0297 24.0954 42.0127 23.574 41.9334 21.8337C41.8601 20.2251 41.5915 19.3514 41.3656 18.7698C41.1014 18.0522 40.6795 17.4031 40.131 16.8704C39.5982 16.3219 38.9491 15.9 38.2315 15.6358C37.6499 15.4098 36.7762 15.1413 35.1676 15.0679ZM21.6994 12.0956C23.4594 12.0151 24.0213 11.9961 28.5026 11.9961L28.5 11.9987C32.9813 11.9987 33.5472 12.0184 35.3032 12.0983C37.0591 12.1782 38.2584 12.4572 39.3083 12.8685C40.4089 13.2818 41.4062 13.93 42.2308 14.7679C43.0699 15.5923 43.7194 16.5896 44.1341 17.6904C44.5415 18.7403 44.8212 19.9356 44.9011 21.6955C44.981 23.4554 45 24.0174 45 28.4987C45 32.98 44.9817 33.5459 44.9011 35.3019C44.8205 37.0579 44.5415 38.2591 44.1341 39.307C43.7101 40.4031 43.0618 41.3985 42.2308 42.2295C41.3998 43.0605 40.4044 43.7088 39.3083 44.1328C38.2584 44.5402 37.0631 44.8199 35.3032 44.8998C33.5433 44.9797 32.9813 44.9987 28.5 44.9987C24.0187 44.9987 23.4528 44.9804 21.6968 44.8998C19.9409 44.8192 18.7396 44.5402 17.6917 44.1328C16.5909 43.7181 15.5936 43.0686 14.7692 42.2295C13.9301 41.4052 13.2808 40.4079 12.8665 39.307C12.4585 38.2571 12.1801 37.0618 12.0996 35.3019C12.019 33.542 12 32.98 12 28.4987C12 24.0174 12.0196 23.4515 12.0996 21.6955C12.1795 19.9396 12.4585 18.7403 12.8698 17.6904C13.2831 16.5898 13.9313 15.5925 14.7692 14.7679C15.5935 13.9288 16.5908 13.2795 17.6917 12.8652C18.7416 12.4572 19.9395 12.1762 21.6994 12.0956ZM28.5 20.0273C26.8241 20.0273 25.1858 20.5243 23.7924 21.4554C22.3989 22.3865 21.3129 23.7099 20.6715 25.2582C20.0302 26.8066 19.8625 28.5103 20.1895 30.154C20.5165 31.7977 21.3235 33.3075 22.5086 34.4925C23.6937 35.6775 25.2036 36.4844 26.8473 36.8113C28.491 37.1382 30.1947 36.9703 31.743 36.3288C33.2913 35.6874 34.6146 34.6013 35.5456 33.2077C36.4766 31.8142 36.9734 30.1759 36.9733 28.5C36.9734 27.3873 36.7543 26.2855 36.3285 25.2574C35.9027 24.2294 35.2785 23.2953 34.4917 22.5085C33.7048 21.7217 32.7707 21.0976 31.7426 20.6719C30.7146 20.2462 29.6127 20.0272 28.5 20.0273ZM28.5 33.9998C27.4118 33.9998 26.3481 33.6771 25.4434 33.0726C24.5386 32.4681 23.8334 31.6088 23.417 30.6035C23.0006 29.5982 22.8916 28.492 23.1039 27.4247C23.3162 26.3575 23.8402 25.3772 24.6096 24.6077C25.3791 23.8383 26.3594 23.3143 27.4266 23.102C28.4939 22.8897 29.6001 22.9987 30.6054 23.4151C31.6107 23.8315 32.47 24.5367 33.0745 25.4415C33.679 26.3462 34.0017 27.4099 34.0017 28.4981C34.0017 29.9572 33.4221 31.3566 32.3903 32.3884C31.3585 33.4202 29.9591 33.9998 28.5 33.9998ZM39.2878 19.6919C39.2878 20.7854 38.4014 21.6719 37.3079 21.6719C36.2143 21.6719 35.3279 20.7854 35.3279 19.6919C35.3279 18.5984 36.2143 17.7119 37.3079 17.7119C38.4014 17.7119 39.2878 18.5984 39.2878 19.6919Z" fill="white"/>
</svg>
