<svg width="94" height="23" viewBox="0 0 94 23" fill="none" xmlns="http://www.w3.org/2000/svg">
<path d="M34.2628 13.008C34.1887 12.9339 34.085 12.9339 34.0109 13.008C33.9961 13.0229 33.9961 13.0229 33.9961 13.0377C33.1069 14.2677 31.3878 14.5345 30.1578 13.6305C30.0541 13.5564 29.9503 13.4675 29.8614 13.3785C28.824 12.2819 28.824 10.5628 29.8614 9.46618C30.9136 8.39917 32.6327 8.39917 33.6997 9.45136C33.8034 9.5551 33.9071 9.67365 33.9961 9.79221C34.0553 9.86631 34.1591 9.89595 34.248 9.83667C34.2628 9.83667 34.2628 9.82185 34.2776 9.82185L35.3446 8.75484C35.4039 8.69557 35.4187 8.59183 35.3595 8.51773C35.2705 8.39917 35.1668 8.29544 35.0631 8.1917C33.2847 6.39854 30.3801 6.39854 28.6018 8.17688C27.7422 9.03641 27.2532 10.2072 27.2532 11.4224C27.268 13.9565 29.3427 16.0016 31.8917 15.972C33.0772 15.9571 34.2183 15.4829 35.0779 14.653C35.1964 14.5345 35.3002 14.4159 35.4039 14.2973C35.4632 14.2232 35.4632 14.1195 35.3891 14.0602L34.2628 13.008Z" fill="#201661"/>
<path d="M71.6078 13.3329C71.5337 13.2588 71.4299 13.2588 71.3558 13.3329L71.341 13.3478C70.8371 13.9554 70.1406 14.2666 69.2218 14.2666C67.7843 14.2666 66.7321 13.5404 66.4506 12.2215H73.1934C73.2824 12.2215 73.3565 12.1622 73.3713 12.0733C73.4009 11.8658 73.4157 11.6583 73.4157 11.4509C73.4454 10.2505 73.0008 9.09456 72.1857 8.20539C71.3855 7.33104 70.2592 6.842 69.0736 6.87163C67.7399 6.87163 66.6284 7.3014 65.7837 8.19057C64.939 9.0501 64.4944 10.1319 64.4944 11.436C64.4944 12.755 64.9242 13.8368 65.7985 14.7112C66.658 15.5559 67.814 16.0005 69.207 16.0005C70.6593 16.0005 71.7856 15.5411 72.6155 14.6074C72.6748 14.5333 72.6748 14.4296 72.6007 14.3703L71.6078 13.3329ZM69.0588 8.56106C70.2888 8.56106 71.2817 9.28722 71.5337 10.6951H66.4506C66.7025 9.37613 67.6806 8.56106 69.0588 8.56106Z" fill="#201661"/>
<path d="M37.2268 14.6534C35.4485 12.8603 35.4485 9.97046 37.2268 8.1773C39.0052 6.38413 41.9098 6.38413 43.6881 8.16248C44.5477 9.02201 45.0367 10.1928 45.0367 11.408C45.0219 13.9421 42.9472 15.9872 40.3982 15.9575C39.2126 15.9724 38.0715 15.4981 37.2268 14.6534ZM40.4575 14.1496C41.1836 14.1644 41.8802 13.8828 42.384 13.3641C43.4214 12.2675 43.4214 10.5484 42.384 9.45178C41.317 8.41441 39.6128 8.41441 38.5309 9.45178C37.4936 10.5484 37.4936 12.2675 38.5309 13.3641C39.0496 13.8976 39.7461 14.1792 40.4575 14.1496Z" fill="#201661"/>
<path d="M46.4588 7.09424H47.9704C48.0742 7.09424 48.1483 7.16834 48.1483 7.27207V15.571C48.1483 15.6747 48.0742 15.7488 47.9704 15.7488H46.4588C46.3551 15.7488 46.281 15.6747 46.281 15.571V7.27207C46.281 7.16834 46.3551 7.09424 46.4588 7.09424Z" fill="#201661"/>
<path d="M57.9441 10.4272V15.5695C57.9441 15.6733 57.87 15.7474 57.7663 15.7474H56.2547C56.151 15.7474 56.0769 15.6733 56.0769 15.5695V10.6198C56.0769 9.3157 55.3359 8.60436 54.1355 8.60436C52.8166 8.60436 51.9422 9.41944 51.9422 11.094V15.5695C51.9422 15.6733 51.8681 15.7474 51.7644 15.7474H50.2528C50.1491 15.7474 50.075 15.6733 50.075 15.5695V7.27061C50.075 7.16687 50.1491 7.09277 50.2528 7.09277H51.7644C51.8681 7.09277 51.9422 7.16687 51.9422 7.27061V8.20424C52.5202 7.31507 53.3945 6.87048 54.6245 6.87048C56.6104 6.85566 57.9441 8.21906 57.9441 10.4272Z" fill="#201661"/>
<path d="M61.4571 8.54729C61.9017 7.52474 62.7316 6.99124 63.932 6.94678C64.0357 6.94678 64.1098 7.02087 64.1246 7.10979C64.1246 7.10979 64.1246 7.10979 64.1246 7.12461V8.7844C64.1246 8.88813 64.0505 8.96223 63.9468 8.96223C63.3392 8.94741 62.7464 9.12525 62.2574 9.49573C61.7239 9.88104 61.4571 10.5183 61.4571 11.4075V15.5717C61.4571 15.6755 61.383 15.7496 61.2793 15.7496H59.7677C59.6639 15.7496 59.5898 15.6755 59.5898 15.5717V7.27281C59.5898 7.16907 59.6639 7.09497 59.7677 7.09497H61.2793C61.383 7.09497 61.4571 7.16907 61.4571 7.27281V8.54729Z" fill="#201661"/>
<path d="M81.8483 7.09431H83.3599C83.4636 7.09431 83.5377 7.16841 83.5377 7.27214V15.5711C83.5377 15.6748 83.4636 15.7489 83.3599 15.7489H81.8483C81.7446 15.7489 81.6705 15.6748 81.6705 15.5711V14.5041C80.9591 15.497 79.9514 15.9712 78.6325 15.9712C77.4766 15.986 76.3651 15.5118 75.5797 14.6523C74.7349 13.7779 74.2904 12.622 74.32 11.4068C74.2904 10.2064 74.7498 9.03567 75.5797 8.16132C76.3651 7.30178 77.4766 6.82756 78.6325 6.84238C79.9514 6.84238 80.9591 7.33142 81.6705 8.29469V7.27214C81.6705 7.16841 81.7594 7.09431 81.8483 7.09431ZM78.9437 14.1929C79.6698 14.2077 80.3812 13.9261 80.8999 13.4074C81.4186 12.8739 81.7001 12.1626 81.6853 11.4216C81.7149 10.6806 81.4334 9.9693 80.8999 9.45061C79.818 8.38361 78.0693 8.38361 76.9875 9.45061C76.4688 9.9693 76.1873 10.6806 76.2021 11.4216C76.1873 12.1626 76.4688 12.8887 76.9875 13.4074C77.5062 13.9261 78.2027 14.2077 78.9437 14.1929Z" fill="#201661"/>
<path d="M92.3107 3.62646H93.8223C93.926 3.62646 94.0001 3.70056 94.0001 3.8043V15.571C94.0001 15.6747 93.926 15.7488 93.8223 15.7488H92.3107C92.207 15.7488 92.1329 15.6747 92.1329 15.571V14.504C91.4215 15.4969 90.4138 15.9711 89.0949 15.9711C87.939 15.9859 86.8275 15.5117 86.0421 14.6522C85.1973 13.7778 84.7528 12.6219 84.7824 11.4067C84.7528 10.2063 85.2122 9.03559 86.0421 8.16124C86.8275 7.30171 87.939 6.82748 89.0949 6.8423C90.4138 6.8423 91.4215 7.33135 92.1329 8.29461V3.8043C92.1329 3.70056 92.207 3.62646 92.3107 3.62646ZM89.3913 14.1928C90.1174 14.2076 90.8288 13.926 91.3474 13.4073C91.8661 12.8738 92.1477 12.1625 92.1329 11.4215C92.1625 10.6806 91.8809 9.96922 91.3474 9.45054C90.2656 8.38353 88.5169 8.38353 87.4351 9.45054C86.9164 9.96922 86.6348 10.6806 86.6497 11.4215C86.6348 12.1625 86.9164 12.8887 87.4351 13.4073C87.9538 13.926 88.6651 14.2076 89.3913 14.1928Z" fill="#201661"/>
<path d="M47.2154 5.82068C47.7556 5.82068 48.1935 5.38277 48.1935 4.84259C48.1935 4.30241 47.7556 3.8645 47.2154 3.8645C46.6752 3.8645 46.2373 4.30241 46.2373 4.84259C46.2373 5.38277 46.6752 5.82068 47.2154 5.82068Z" fill="#201661"/>
<path d="M11.2781 20.3181C16.2543 20.3181 20.2884 16.2841 20.2884 11.3079C20.2884 6.33164 16.2543 2.29761 11.2781 2.29761C6.30186 2.29761 2.26782 6.33164 2.26782 11.3079C2.26782 16.2841 6.30186 20.3181 11.2781 20.3181Z" fill="white"/>
<path d="M21.1919 5.83889C19.2654 2.37112 15.5457 0 11.3073 0C5.06828 0 0 5.06828 0 11.3073C0 17.5463 5.06828 22.6146 11.3073 22.6146C13.1449 22.6146 14.9084 22.17 16.4497 21.3846C18.4503 20.362 20.1249 18.7467 21.2067 16.7757C22.1107 15.1456 22.5553 13.2931 22.5553 11.3073C22.5553 9.32148 22.0811 7.45422 21.1919 5.83889ZM11.3073 19.3247C6.87626 19.3247 3.28993 15.7383 3.28993 11.3073C3.28993 6.87626 6.87626 3.28993 11.3073 3.28993C15.7383 3.28993 19.3247 6.87626 19.3247 11.3073C19.3247 15.7383 15.7235 19.3247 11.3073 19.3247Z" fill="url(#paint0_linear)"/>
<path d="M11.3071 16.0207C13.9098 16.0207 16.0197 13.9108 16.0197 11.3081C16.0197 8.70537 13.9098 6.59546 11.3071 6.59546C8.70439 6.59546 6.59448 8.70537 6.59448 11.3081C6.59448 13.9108 8.70439 16.0207 11.3071 16.0207Z" fill="url(#paint1_linear)"/>
<path d="M7.37992 11.3081C7.37992 8.83321 9.29164 6.81775 11.7072 6.61028C11.5738 6.59546 11.4405 6.59546 11.3071 6.59546C8.71367 6.59546 6.59448 8.69983 6.59448 11.3081C6.59448 13.9163 8.69885 16.0207 11.3071 16.0207C11.4405 16.0207 11.5738 16.0207 11.7072 16.0059C9.262 15.7984 7.37992 13.7829 7.37992 11.3081Z" fill="#154ED5"/>
<path d="M16.0197 11.3073C16.0197 9.95877 15.4418 8.74357 14.5378 7.88403L10.7143 10.8183C10.5661 10.9369 10.4624 11.1147 10.4624 11.3073C10.4624 11.5 10.5661 11.6926 10.7143 11.7964L14.5378 14.7307C15.4418 13.8711 16.0197 12.6559 16.0197 11.3073Z" fill="#154ED5"/>
<path d="M21.1922 5.8391C20.1103 3.8681 18.4505 2.26759 16.4351 1.23022C17.0427 1.54143 17.5169 2.08976 17.754 2.77146C18.0652 3.74954 17.7985 4.75727 17.1464 5.45379L12.0337 10.5665C11.841 10.7592 11.7373 11.0259 11.7373 11.2927C11.7373 11.5594 11.841 11.8262 12.0337 12.0188L17.1464 17.1316C17.7985 17.8281 18.0801 18.8506 17.754 19.8139C17.5169 20.5104 17.0427 21.0439 16.4351 21.3551C18.4357 20.3326 20.1103 18.7173 21.1922 16.7463C22.0962 15.1161 22.5407 13.2637 22.5407 11.2779C22.5407 9.29204 22.0813 7.45442 21.1922 5.8391Z" fill="#55ADED"/>
<path d="M19.1911 15.634C19.1319 15.5747 19.0578 15.5006 18.9837 15.4413L14.271 11.8106C14.1229 11.692 14.0339 11.5142 14.0339 11.3215C14.0339 11.1289 14.1377 10.9362 14.271 10.8325L18.9837 7.20169C19.0726 7.14241 19.1319 7.06831 19.1911 7.00903V15.634Z" fill="#3375CA"/>
<path d="M21.192 5.83995C20.6437 4.86186 19.9768 3.95787 19.1618 3.18726C19.636 3.66148 19.9472 4.31354 19.9472 5.05452C19.962 5.81031 19.6656 6.49201 19.1766 6.98105L15.5754 10.5822C15.3828 10.7749 15.2791 11.0416 15.2791 11.3084C15.2791 11.5751 15.3828 11.8419 15.5754 12.0345L19.1766 15.6357C19.6656 16.1247 19.962 16.8212 19.9472 17.5622C19.9324 18.2884 19.636 18.9404 19.1618 19.4295C19.9472 18.6588 20.6437 17.7697 21.192 16.7768C22.096 15.1466 22.5406 13.2942 22.5406 11.3084C22.5406 9.32254 22.0812 7.45528 21.192 5.83995Z" fill="#62CFE8"/>
<path d="M20.7027 13.5737C20.5397 13.4255 20.3766 13.2921 20.1692 13.1736L17.9018 11.8398C17.724 11.7213 17.5906 11.5286 17.5906 11.2915C17.5906 11.0544 17.724 10.8469 17.9018 10.7432L20.1692 9.40941C20.347 9.29085 20.5248 9.15747 20.7027 9.00928V13.5737Z" fill="#3E8DC7"/>
<path d="M22.6144 11.3075C22.6144 9.3217 22.1106 7.45444 21.1918 5.83911C21.5178 6.43189 21.6067 7.14323 21.3992 7.83975C21.2659 8.28433 21.0584 8.66964 20.762 8.96603C20.7472 8.98085 20.7175 9.01049 20.7027 9.02531L19.1318 10.5962C18.9392 10.7888 18.8354 11.0556 18.8354 11.3223C18.8354 11.5891 18.9392 11.8558 19.1318 12.0485L20.7027 13.6194C20.7175 13.6342 20.7472 13.6638 20.762 13.6786C21.0584 13.9899 21.2955 14.3752 21.3992 14.8049C21.5919 15.5014 21.503 16.2276 21.1918 16.8056C22.0809 15.1606 22.6144 13.2933 22.6144 11.3075Z" fill="#91F6D4"/>
<defs>
<linearGradient id="paint0_linear" x1="0" y1="11.3073" x2="22.5553" y2="11.3073" gradientUnits="userSpaceOnUse">
<stop offset="0.5" stop-color="#2779F5"/>
<stop offset="0.75" stop-color="#2062C5"/>
</linearGradient>
<linearGradient id="paint1_linear" x1="6.59448" y1="11.3081" x2="16.009" y2="11.3081" gradientUnits="userSpaceOnUse">
<stop offset="0.5" stop-color="#2779F5"/>
<stop offset="0.75" stop-color="#2062C5"/>
</linearGradient>
</defs>
</svg>
