<svg width="57" height="57" viewBox="0 0 57 57" fill="none" xmlns="http://www.w3.org/2000/svg">
<g opacity="0.8">
<path fill-rule="evenodd" clip-rule="evenodd" d="M28.5 0C12.7599 0 0 12.7599 0 28.5C0 44.2401 12.7599 57 28.5 57C44.2401 57 57 44.2401 57 28.5C57 12.7599 44.2401 0 28.5 0ZM27.7062 24.1513L27.6464 23.1652C27.467 20.6092 29.0419 18.2746 31.5338 17.3689C32.4508 17.0469 34.0057 17.0067 35.0224 17.2884C35.4211 17.4092 36.1787 17.8117 36.7169 18.174L37.6938 18.8381L38.7703 18.496C39.3683 18.3149 40.1657 18.013 40.5245 17.8117C40.8634 17.6306 41.1625 17.53 41.1625 17.5903C41.1625 17.9325 40.4249 19.0998 39.8069 19.7438C38.9696 20.6495 39.2088 20.73 40.9033 20.1262C41.92 19.784 41.9399 19.784 41.7406 20.1664C41.621 20.3677 41.003 21.0721 40.3451 21.7161C39.2288 22.823 39.169 22.9438 39.169 23.8696C39.169 25.2985 38.4912 28.2771 37.8134 29.9073C36.5574 32.9664 33.8662 36.1262 31.175 37.7161C27.3873 39.9501 22.3437 40.5136 18.0975 39.2054C16.6821 38.7627 14.25 37.6356 14.25 37.4344C14.25 37.374 14.9876 37.2935 15.8847 37.2734C17.7586 37.2331 19.6325 36.7098 21.2273 35.7841L22.3038 35.14L21.0678 34.7174C19.3135 34.1136 17.7387 32.7249 17.34 31.4168C17.2203 30.9941 17.2602 30.974 18.3766 30.974L19.5328 30.9539L18.556 30.491C17.3998 29.9073 16.3432 28.9212 15.8249 27.9149C15.4461 27.1903 14.9677 25.3589 15.1072 25.218C15.1471 25.1576 15.5657 25.2784 16.0442 25.4394C17.4197 25.9425 17.5991 25.8218 16.8017 24.9765C15.3066 23.4469 14.8481 21.1727 15.5657 19.0193L15.9046 18.0532L17.2203 19.3614C19.9116 21.9979 23.0813 23.5677 26.7095 24.0306L27.7062 24.1513Z" fill="white"/>
</g>
</svg>
