<svg width="57" height="57" viewBox="0 0 57 57" fill="none" xmlns="http://www.w3.org/2000/svg">
<g opacity="0.8">
<path fill-rule="evenodd" clip-rule="evenodd" d="M28.5 0C12.7599 0 0 12.7599 0 28.5C0 44.2401 12.7599 57 28.5 57C44.2401 57 57 44.2401 57 28.5C57 12.7599 44.2401 0 28.5 0ZM40.3775 18.6998C41.6856 19.0588 42.7157 20.1164 43.0653 21.4595C43.7006 23.8936 43.7006 28.9725 43.7006 28.9725C43.7006 28.9725 43.7006 34.0512 43.0653 36.4856C42.7157 37.8286 41.6856 38.8862 40.3775 39.2454C38.007 39.8975 28.5006 39.8975 28.5006 39.8975C28.5006 39.8975 18.9942 39.8975 16.6235 39.2454C15.3155 38.8862 14.2853 37.8286 13.9357 36.4856C13.3006 34.0512 13.3006 28.9725 13.3006 28.9725C13.3006 28.9725 13.3006 23.8936 13.9357 21.4595C14.2853 20.1164 15.3155 19.0588 16.6235 18.6998C18.9942 18.0475 28.5006 18.0475 28.5006 18.0475C28.5006 18.0475 38.007 18.0475 40.3775 18.6998Z" fill="white"/>
<path fill-rule="evenodd" clip-rule="evenodd" d="M25.6484 34.2031V24.7031L33.2484 29.4533L25.6484 34.2031Z" fill="white"/>
</g>
</svg>
